<svg width="24" height="24" viewBox="0 0 24 24" fill="none" xmlns="http://www.w3.org/2000/svg">
<g clip-path="url(#clip0_16_1722)">
<path d="M19.2929 6.31854C19.6834 5.92801 19.6834 5.29485 19.2929 4.90432L19.0957 4.70711C18.7052 4.31658 18.072 4.31658 17.6815 4.70711L12 10.3886L6.31854 4.70711C5.92801 4.31658 5.29485 4.31658 4.90432 4.70711L4.70711 4.90432C4.31658 5.29485 4.31658 5.92801 4.70711 6.31854L10.3886 12L4.70711 17.6815C4.31658 18.072 4.31658 18.7052 4.70711 19.0957L4.90432 19.2929C5.29485 19.6834 5.92801 19.6834 6.31854 19.2929L12 13.6114L17.6815 19.2929C18.072 19.6834 18.7052 19.6834 19.0957 19.2929L19.2929 19.0957C19.6834 18.7052 19.6834 18.072 19.2929 17.6815L13.6114 12L19.2929 6.31854Z" fill="#383C4C"/>
</g>
<defs>
<clipPath id="clip0_16_1722">
<rect width="24" height="24" fill="white"/>
</clipPath>
</defs>
</svg>
