<svg width="24" height="24" viewBox="0 0 24 24" fill="none" xmlns="http://www.w3.org/2000/svg">
<path d="M12 2C14.6522 2 17.1957 3.05357 19.0711 4.92893C20.9464 6.8043 22 9.34784 22 12C22 14.6522 20.9464 17.1957 19.0711 19.0711C17.1957 20.9464 14.6522 22 12 22C9.34784 22 6.8043 20.9464 4.92893 19.0711C3.05357 17.1957 2 14.6522 2 12C2 9.34784 3.05357 6.8043 4.92893 4.92893C6.8043 3.05357 9.34784 2 12 2ZM10.7543 13.9729L8.53286 11.75C8.45322 11.6704 8.35868 11.6072 8.25463 11.5641C8.15057 11.521 8.03905 11.4988 7.92643 11.4988C7.8138 11.4988 7.70228 11.521 7.59823 11.5641C7.49418 11.6072 7.39964 11.6704 7.32 11.75C7.15917 11.9108 7.06881 12.129 7.06881 12.3564C7.06881 12.5839 7.15917 12.802 7.32 12.9629L10.1486 15.7914C10.228 15.8715 10.3225 15.935 10.4265 15.9783C10.5306 16.0217 10.6423 16.044 10.755 16.044C10.8677 16.044 10.9794 16.0217 11.0835 15.9783C11.1875 15.935 11.282 15.8715 11.3614 15.7914L17.2186 9.93286C17.2993 9.85355 17.3635 9.75905 17.4075 9.65481C17.4515 9.55056 17.4744 9.43864 17.4749 9.32549C17.4754 9.21235 17.4536 9.10022 17.4105 8.99557C17.3675 8.89092 17.3042 8.79583 17.2242 8.71577C17.1443 8.63572 17.0493 8.57229 16.9447 8.52914C16.8401 8.48599 16.728 8.46398 16.6148 8.46437C16.5017 8.46476 16.3897 8.48755 16.2854 8.53143C16.1811 8.5753 16.0865 8.63939 16.0071 8.72L10.7543 13.9729Z" fill="#34C759"/>
</svg>
