<svg width="24" height="24" viewBox="0 0 24 24" fill="none" xmlns="http://www.w3.org/2000/svg">
<path d="M1.14738 21.4444C1.34389 21.8148 1.64758 22 2.05847 22H21.9415C22.3524 22 22.6561 21.8148 22.8526 21.4444C23.0491 21.0741 23.0491 20.7037 22.8526 20.3333L12.9379 2.55556C12.7414 2.18519 12.4287 2 12 2C11.5713 2 11.2586 2.18519 11.0621 2.55556L1.14738 20.3333C0.950873 20.7037 0.950873 21.0741 1.14738 21.4444Z" fill="#FFCC00"/>
<path d="M12.0719 10C11.7682 10 11.5138 10.1063 11.3087 10.3189C11.1029 10.5322 11 10.7963 11 11.1111V14.4444C11 14.7593 11.1029 15.023 11.3087 15.2356C11.5138 15.4489 11.7682 15.5556 12.0719 15.5556C12.3756 15.5556 12.6303 15.4489 12.8361 15.2356C13.0412 15.023 13.1437 14.7593 13.1437 14.4444V11.1111C13.1437 10.7963 13.0412 10.5322 12.8361 10.3189C12.6303 10.1063 12.3756 10 12.0719 10ZM12.0719 18.8889C12.3756 18.8889 12.6303 18.7822 12.8361 18.5689C13.0412 18.3563 13.1437 18.0926 13.1437 17.7778C13.1437 17.463 13.0412 17.1993 12.8361 16.9867C12.6303 16.7733 12.3756 16.6667 12.0719 16.6667C11.7682 16.6667 11.5138 16.7733 11.3087 16.9867C11.1029 17.1993 11 17.463 11 17.7778C11 18.0926 11.1029 18.3563 11.3087 18.5689C11.5138 18.7822 11.7682 18.8889 12.0719 18.8889Z" fill="#1C1C1E"/>
</svg>
